<?xml version="1.0" encoding="utf-8"?>
<!-- Generator: Adobe Illustrator 27.5.0, SVG Export Plug-In . SVG Version: 6.00 Build 0)  -->
<svg version="1.1" id="Layer_1" xmlns="http://www.w3.org/2000/svg" xmlns:xlink="http://www.w3.org/1999/xlink" x="0px" y="0px"
	 viewBox="0 0 512 512" style="enable-background:new 0 0 512 512;" xml:space="preserve">
<g>
	<path d="M493.7,0.9L299.4,75.6l2.3-29.3c1-12.8-12.8-21.5-24-15.1L101.3,133.4C38.6,169.7,0,236.6,0,309c0,112.1,90.9,203,203,203
		c72.4,0,139.4-38.6,175.7-101.3l102.1-176.4c6.5-11.1-2.2-25-15.1-24l-29.3,2.3l74.7-194.3c0.6-1.5,0.9-3.2,0.9-4.8
		C512,6,506,0,498.5,0C496.8,0,495.2,0.3,493.7,0.9z M192,192c70.69,0,128,57.31,128,128s-57.31,128-128,128S64,390.69,64,320
		S121.31,192,192,192z M192,288c0-17.67-14.33-32-32-32s-32,14.33-32,32s14.33,32,32,32S192,305.67,192,288z M208,384
		c8.84,0,16-7.16,16-16s-7.16-16-16-16s-16,7.16-16,16S199.16,384,208,384z"/>
</g>
</svg>
